<svg width="16" height="11" viewBox="0 0 16 11" fill="none" xmlns="http://www.w3.org/2000/svg">
<path d="M15.2109 2.23828L15.0352 2.84375L14.2734 3.39062L12.7305 3.72266L11.6367 4.11328L10.875 4.32812L10.0352 4.5625L9.41016 4.67969L8.80469 4.875L8.08203 5.07031L7.32031 5.24609L6.51953 5.59766L5.875 5.83203L5.25 5.92969L4.68359 5.96875L4.64453 6.20312L5.83594 6.80859L6.89062 7.19922L7.125 7.35547L8.04297 7.76562L8.60938 8.07812H9.07812L9.60547 8.39062L10.0742 8.60547L10.5234 8.95703L11.0117 9.15234L11.3633 9.5625L11.5977 9.83594V10.1289L11.3633 10.3242L11.0117 10.2852L10.5625 10.0312L10.0352 9.71875L9.60547 9.40625H9.33203L8.96094 9.19141L8.35547 8.99609L7.76953 8.76172L7.08594 8.48828L6.51953 8.27344L6.01172 8.07812L5.28906 7.84375L4.52734 7.55078L3.76562 7.47266L3.04297 7.27734L2.47656 7.19922L2.04688 7.08203L1.71484 7.19922H1.28516L0.914062 7.16016L0.5625 6.92578L0.289062 6.59375L0.210938 6.20312L0.367188 5.71484L0.601562 5.51953L1.05078 5.28516L1.67578 5.16797L2.24219 5.12891L2.84766 4.875L3.31641 4.67969L3.96094 4.40625L4.64453 4.19141L5.25 3.87891L5.91406 3.68359L8.39453 2.88281L9.23438 2.55078L10.5234 2.39453L10.9531 2.16016L11.4414 1.80859L11.9297 1.55469L12.4766 1.35938L12.9648 1.00781L13.3945 0.714844L13.7656 0.675781L14.2734 0.714844L14.7617 1.08594L14.9961 1.59375L15.2109 2.23828Z" fill="#FF0000"/>
</svg>
